<?xml version="1.0" encoding="UTF-8"?>
<svg width="7px" height="8px" viewBox="0 0 7 8" version="1.1" xmlns="http://www.w3.org/2000/svg" xmlns:xlink="http://www.w3.org/1999/xlink">
    <!-- Generator: sketchtool 51 (57462) - http://www.bohemiancoding.com/sketch -->
    <title>C801F791-8E01-4766-81C5-0612368F8082</title>
    <desc>Created with sketchtool.</desc>
    <defs></defs>
    <g id="Адаптив" stroke="none" stroke-width="1" fill="none" fill-rule="evenodd">
        <g id="volhovec_user_lk" transform="translate(-136.000000, -192.000000)">
            <rect fill="#FFFFFF" x="0" y="0" width="320" height="757"></rect>
            <g id="Group-186" transform="translate(136.000000, 192.000000)" fill="#979797">
                <path d="M6.89474647,4.23028198 C6.75876198,4.09395196 6.53340162,4.09395196 6.39741714,4.23028198 L3.85366211,6.78582682 L3.85366211,0.353686377 C3.85366211,0.156650912 3.6974464,0 3.50153655,0 C3.30716324,0 3.14505744,0.156650912 3.14505744,0.353686377 L3.14505744,6.78582682 L0.607192507,4.23028198 C0.466342284,4.09395196 0.239445379,4.09395196 0.10525353,4.23028198 C-0.0350845101,4.37149931 -0.0350845101,4.59760136 0.10525353,4.73418861 L3.25133533,7.89447285 C3.38731982,8.03517572 3.61242409,8.03517572 3.74687203,7.89447285 L6.89474647,4.73418861 C7.03508451,4.59760136 7.03508451,4.37149931 6.89474647,4.23028198 Z" id="arr_down"></path>
            </g>
        </g>
    </g>
</svg>